[img]http://pklibrary.com/Movie/wp-content/uploads/2011/03/CHAL-MERE-BHAI_L.jpg[/img]

[code]General
Format                           : AVI
Format/Info                      : Audio Video Interleave
File size                        : 1.46 GiB
Duration                         : 2h 14mn
Overall bit rate                 : 1 548 Kbps

Video
ID                               : 0
Format                           : MPEG-4 Visual
Format profile                   : Advanced Simple@L5
Format settings, BVOP            : 2
Format settings, QPel            : No
Format settings, GMC             : No warppoints
Format settings, Matrix          : Default (H.263)
Codec ID                         : XVID
Codec ID/Hint                    : XviD
Duration                         : 2h 14mn
Bit rate                         : 1 091 Kbps
Width                            : 640 pixels
Height                           : 272 pixels
Display aspect ratio             : 2.35:1
Frame rate                       : 29.970 fps
Color space                      : YUV
Chroma subsampling               : 4:2:0
Bit depth                        : 8 bits
Scan type                        : Progressive
Compression mode                 : Lossy
Bits/(Pixel*Frame)               : 0.209
Stream size                      : 1.03 GiB (70%)
Writing library                  : XviD 1.2.1 (UTC 2008-12-04)

Audio
ID                               : 1
Format                           : AC-3
Format/Info                      : Audio Coding 3
Mode extension                   : CM (complete main)
Codec ID                         : 2000
Duration                         : 2h 14mn
Bit rate mode                    : Constant
Bit rate                         : 448 Kbps
Channel(s)                       : 6 channels
Channel positions                : Front: L C R, Side: L R, LFE
Sampling rate                    : 48.0 KHz
Bit depth                        : 16 bits
Compression mode                 : Lossy
Stream size                      : 432 MiB (29%)
Alignment                        : Aligned on interleaves
Interleave, duration             : 64 ms (1.92 video frames)
Interleave, preload duration     : 7808 ms
Title                            : Striker[WBZ]  [/code]

[img]http://pic.phyrefile.com/s/sh/shahaz/2011/04/12/1_005.jpg[/img]
[img]http://pic.phyrefile.com/s/sh/shahaz/2011/04/12/2_005.jpg[/img]
[img]http://pic.phyrefile.com/s/sh/shahaz/2011/04/12/3_004.jpg[/img]
[img]http://pic.phyrefile.com/s/sh/shahaz/2011/04/12/4_004.jpg[/img]
[img]http://pic.phyrefile.com/s/sh/shahaz/2011/04/12/5_004.jpg[/img]
[img]http://pic.phyrefile.com/s/sh/shahaz/2011/04/12/6_004.jpg[/img]
[img]http://pic.phyrefile.com/s/sh/shahaz/2011/04/12/7_004.jpg[/img]
[img]http://pic.phyrefile.com/s/sh/shahaz/2011/04/12/8_004.jpg[/img]
[img]http://pic.phyrefile.com/s/sh/shahaz/2011/04/12/9_004.jpg[/img]
[img]http://pic.phyrefile.com/s/sh/shahaz/2011/04/12/10_004.jpg[/img]
